PathFileType	4	(X/Y/Z)	4_coords_data.trc
DataRate	CameraRate	NumFrames	NumMarkers	Units	OrigDataRate	OrigDataStartFrame	OrigNumFrames
30.0	30.0	5	21	m	30.0	1	47
Frame#	Time	THUMB_TIP	THUMB_IP	THUMB_MCP	THUMB_CMC	INDEX_TIP	INDEX_DIP	INDEX_PIP	INDEX_MCP	MIDDLE_TIP	MIDDLE_DIP	MIDDLE_PIP	MIDDLE_MCP	RING_TIP	RING_DIP	RING_PIP	RING_MCP	PINKY_TIP	PINKY_DIP	PINKY_PIP	PINKY_MCP	WRIST
X1	Y1	Z1	X2	Y2	Z2	X3	Y3	Z3	X4	Y4	Z4	X5	Y5	Z5	X6	Y6	Z6	X7	Y7	Z7	X8	Y8	Z8	X9	Y9	Z9	X10	Y10	Z10	X11	Y11	Z11	X12	Y12	Z12	X13	Y13	Z13	X14	Y14	Z14	X15	Y15	Z15	X16	Y16	Z16	X17	Y17	Z17	X18	Y18	Z18	X19	Y19	Z19	X20	Y20	Z20	X21	Y21	Z21
0	-2.749317978547796e-18	0.4849984148702382	-0.01829690661316441	-0.1682443417447892	0.4904701693571688	-0.019818937036242046	-0.14597904753550506	0.47688616429219344	-0.028165736490867732	-0.11924656270414336	0.47902448776876305	-0.028021905967040128	-0.07468989221037814	0.4985237516313441	-0.01662742817923346	-0.0987791388665441	0.515830943567097	-0.015584061784559622	-0.1040110117496974	0.5300464115513527	-0.0008170414531940562	-0.1185666090758688	0.49256931290828343	0.019409097791386887	-0.11864699910311727	0.5023179586157976	-0.018952716031673922	-0.08529438731571914	0.519391702888045	-0.013030431262686437	-0.08648342038545348	0.5376923822824384	0.006034015049417474	-0.09877331747682633	0.5012687049250913	0.03189513206464201	-0.097957060475171	0.5015914447258978	-0.010392948814451741	-0.07416451576234251	0.5183837548931183	-0.0063361199784022215	-0.0690108317360501	0.5391685348934636	0.006068758792174944	-0.07486675882102362	0.5115559625553247	0.03559756374604761	-0.07542921847930195	0.5305045771833092	0.005488247998067686	-0.062185988709711926	0.5224468318188651	-0.008147907874752724	-0.05569538067548874	0.5368952967466188	0.007076277936400088	-0.05516807941533253	0.5113037562339607	0.03224674379552683	-0.05164612631747423	0.4622830810018609	-0.023011742144276925	-0.051989820119430985
1	0.03333333333333339	0.4860745002943645	-0.018112458121120167	-0.16840194258866326	0.4913554195236588	-0.01951463995327396	-0.14608276298449208	0.4777088892413779	-0.02807586037445553	-0.11945011917741333	0.47889066887545806	-0.02768556103670128	-0.0748593010269979	0.4983623808723211	-0.01636323728830613	-0.09874942139402976	0.5157388030900426	-0.015600153089191937	-0.10379696073677269	0.5300238242136184	-0.0008125769745093159	-0.11826332161819203	0.49268469363008394	0.01966662537331565	-0.11842973214252717	0.5018494256704364	-0.018323991727393074	-0.08536794641307976	0.5190468260560988	-0.012780956861311088	-0.08660252506534005	0.537643567369668	0.006230177607166265	-0.09852508891451545	0.5011429076929261	0.031989069349618204	-0.09795127678208876	0.5010562280654598	-0.008972043537925578	-0.07393735457254236	0.518309445266915	-0.006235188084868781	-0.06948357882285688	0.5390664493014106	0.0063429721658643246	-0.07506180857958178	0.5113124784774423	0.0357396683915846	-0.07558352547124308	0.5298374661474986	0.005970480329908212	-0.062152825166557124	0.5220119029203802	-0.007773477235267112	-0.055605750199441195	0.5367050785722554	0.007222784176085573	-0.05541933146241196	0.5111216348283438	0.03240882345297258	-0.05195028508837368	0.4622830810018609	-0.023011742144276925	-0.051989820119430985
2	0.06666666666666676	0.4869106774186527	-0.017953704254838443	-0.16849436017622227	0.492033023562664	-0.01926544229016558	-0.14613276557056842	0.47832273678180404	-0.027991918147299955	-0.11958664239784461	0.47878826680383046	-0.027427038872162135	-0.07498446539712961	0.49824580733321977	-0.016151669978664684	-0.0987431337558834	0.5156764384450724	-0.015626583736190303	-0.10363162876769194	0.5300212769132044	-0.0008227696131810625	-0.11802199115835454	0.49279062698998577	0.01985227477757545	-0.11826144832566732	0.5015087761319266	-0.017810164950866736	-0.08540846983840955	0.5188081699088302	-0.012601179686822062	-0.08667237152390189	0.5376254647420613	0.0063626512292160875	-0.09832106596350176	0.5010727671600901	0.032051171474262286	-0.09793616584554254	0.5007374424711148	-0.00780496580028367	-0.07366945576155542	0.5182734679665773	-0.006164028662730248	-0.06982301128215707	0.5390079447037861	0.006541745765689666	-0.07519187984157005	0.5111467474284938	0.03583735385044429	-0.07568367993481001	0.5289321062230392	0.00650575643628204	-0.06221546859320087	0.5217159439422178	-0.0075022178846446685	-0.05552938922176737	0.5365807168549508	0.007325009616511946	-0.05559159759599419	0.5109979858237131	0.03251728729876291	-0.05216282680113066	0.4622830810018609	-0.023011742144276925	-0.051989820119430985
3	0.10000000000000014	0.4875523356607805	-0.017827878393602115	-0.1685406539274027	0.4925454729413452	-0.01907589460348169	-0.14614621185716314	0.4787713366282551	-0.02792348900274244	-0.11967333437520844	0.4787165681356419	-0.02724230814859685	-0.0750703861200071	0.49817015928721986	-0.015988778891373512	-0.09875151413082384	0.5156418865197329	-0.015657599895904317	-0.10350851612636863	0.5300369039250724	-0.0008418122683672147	-0.11783631232381986	0.49288708129793835	0.01997733878819785	-0.11813584872628557	0.5012768082885445	-0.01742007019075964	-0.08542931636566714	0.5186547557363136	-0.012482688653109975	-0.08670571992812459	0.5376323079089356	0.00644064914453335	-0.09815863877581132	0.5010485774701732	0.03208667702089152	-0.09791401181688691	0.5005766225718119	-0.006939281965507527	-0.07342256576038114	0.5182673302632846	-0.0061212113493168685	-0.07005067877505716	0.5389850562403731	0.006674878258724037	-0.07526756482722091	0.5110472184596639	0.035897749385382816	-0.07573858208112971	0.5251577959530239	0.007749500383465224	-0.0627293049927296	0.5215342479821623	-0.0073200808624109825	-0.05546448419818806	0.5365128695320074	0.007390401953924153	-0.05569817368624075	0.5109246443137078	0.032580958939183446	-0.05229787664774821	0.4622830810018609	-0.023011742144276925	-0.051989820119430985
4	0.13333333333333353	0.4880340933435874	-0.017736043836526716	-0.16855406917396187	0.4929243271456911	-0.018944293554389757	-0.14613475281551674	0.47908748116192323	-0.02787468180579422	-0.1197224477494937	0.4786731216650685	-0.027124597637416037	-0.07512249618059941	0.49813014427074964	-0.015870428267038328	-0.09876798849703045	0.5156318292117796	-0.015689416125590494	-0.10342183194407206	0.5300677349494529	-0.0008657887303290535	-0.11770029577529267	0.4929737106323717	0.020051886551163967	-0.11804715998763937	0.5011363143037584	-0.017155268767126364	-0.08543908030214203	0.5185696938692446	-0.012416518356876294	-0.08671247005985239	0.5376588087007308	0.006473135050496515	-0.09803484786222505	0.5010613297520342	0.03210028025677525	-0.09788691485031353	0.5005173316276762	-0.00637678718452217	-0.07323082744367493	0.5182839829764136	-0.00610371589020664	-0.07018590841016514	0.5389906629305008	0.006752021039407197	-0.07529897131566232	0.5110028413908176	0.03592723928756503	-0.07575648594406115	0.5088167364741054	-0.017689348089786172	-0.05053530319560484	0.5214455882622069	-0.007213217106192271	-0.05541001161034548	0.5364923844456122	0.00742540972599437	-0.05575140300310244	0.5108936419044899	0.03260763307681358	-0.052368584884611824	0.4622830810018609	-0.023011742144276925	-0.051989820119430985
